<?xml version="1.0" encoding="utf-8"?>
<!-- Generator: Adobe Illustrator 22.0.1, SVG Export Plug-In . SVG Version: 6.00 Build 0)  -->
<svg version="1.1" id="Layer_1" xmlns="http://www.w3.org/2000/svg" xmlns:xlink="http://www.w3.org/1999/xlink" x="0px" y="0px"
	 viewBox="0 0 300 300" style="enable-background:new 0 0 300 300;" xml:space="preserve">
<style type="text/css">
	.st0{fill-rule:evenodd;clip-rule:evenodd;fill:#333333;}
	.st1{fill-rule:evenodd;clip-rule:evenodd;fill:#F7961C;}
	.st2{fill:#333333;}
</style>
<g>
	<path class="st0" d="M17.1,214.4c3.7-2.2,7.3-4.3,11-6.5c8-4.7,16.1-9.4,24.1-14.1c0.7-0.4,1.4-0.8,2-1.2c0.6-0.4,1.1-0.3,1.6,0.2
		c1.5,1.7,3.1,3.3,4.6,5c3,3.2,6,6.5,9,9.7c2.6,2.8,6.1,4.3,9.9,4.9c2.5,0.4,5,0.5,7.5,0.5c8.5,0,16.9,0,25.4,0c0.4,0,0.8,0,1.1,0
		c0.5,0,0.8,0.2,0.7,0.7c0,0.3,0,0.5,0,0.8c0,12.8,0,25.7,0,38.5c0,1-0.3,1.6-1.2,2.1c-1.4,0.9-2.7,1.2-4.4,1.2
		c-6.7-0.1-13.4,0-20.1-0.1c-8-0.2-15.9-0.7-23.7-2.6c-8.3-2-15.7-5.7-22.2-11c-4-3.3-7.4-7-10.7-10.9c-4.8-5.6-9.6-11.2-14.4-16.8
		C17.3,214.7,17.3,214.6,17.1,214.4z"/>
	<path class="st1" d="M228.5,90.2c1.1-0.7,2.2-1.3,3.4-2c11.2-6.6,22.3-13.1,33.5-19.7c0.2-0.1,0.5-0.3,0.7-0.4
		c1-0.6,0.9-0.6,1.7,0.2c3.7,4.1,7.5,8.2,11.2,12.2c3,3.2,5.9,6.5,8.5,10.1c3.7,5,6.8,10.2,8.7,16.1c1.1,3.7,1.7,7.5,2,11.3
		c0.5,8.7,0.1,17.4,0.2,26.1c0,1.1,0,1.1-1.2,1.1c-14.8,0-29.5,0-44.3,0c-1.1,0-1.1,0-1.1-1.1c0-4.9,0-9.8-0.1-14.6
		c-0.1-3.5-0.3-6.9-1.3-10.3c-0.9-2.8-2.1-5.5-4-7.8c-4-5.1-8-10.3-12-15.4c-1.6-2-3.3-3.9-5.6-5.4
		C228.7,90.6,228.6,90.4,228.5,90.2z"/>
	<path class="st1" d="M298.3,155.2c0,1.3,0,2.6,0,3.9c0,3.9-0.1,7.8,0,11.7c0,1.1-0.4,1.6-1.3,2.2c-23.1,13.5-46.2,27.1-69.3,40.7
		c-23.5,13.8-47.1,27.7-70.6,41.5c-0.6,0.4-1.2,0.6-2,0.5c-3-0.4-5.9-0.8-8.7-1.8c-2.6-0.9-4.9-2.2-6.8-4.2c-0.9-0.9-0.9-1,0.2-1.6
		c8.5-5,16.9-10,25.4-14.9c11.1-6.5,22.1-13,33.2-19.5c0.8-0.5,1.6-0.7,2.5-0.7c4,0,8,0,12.1,0c2.8,0,5.6-0.2,8.3-0.7
		c3.6-0.7,6.7-2.3,9.2-4.9c5.3-5.7,10.6-11.4,15.9-17.1c1.6-1.7,2.7-3.7,3.4-5.9c0.3-0.8,0.7-1.3,1.4-1.7c15.3-9,30.6-18,45.9-27
		C297.4,155.4,297.7,155.1,298.3,155.2z"/>
	<path class="st1" d="M184.2,213.1c-16.2,9.5-32.4,19-48.6,28.6c-0.6-1.2-0.7-2.5-0.9-3.7c-0.6-3.8-0.8-7.6-0.8-11.4
		c0-9.1,0-18.2,0-27.3c0-0.9,0.3-1.5,1.1-2c14.7-8.6,29.4-17.3,44.1-25.9c0.4-0.2,0.7-0.5,1.3-0.6c0.2,0.4,0.1,0.9,0.1,1.4
		c0,13,0,26,0,39.1c0,1.9-0.2,1.7,1.8,1.7c0.6,0,1.2,0,1.8,0C184.1,212.9,184.2,213,184.2,213.1z"/>
	<path class="st1" d="M297.8,181.4c-0.1,1.7-0.3,3.3-0.6,4.8c-0.9,5.2-2.5,10.3-5.1,15c-0.4,0.7-0.8,1.1-1.5,1.5
		c-24.1,14.1-48.1,28.3-72.2,42.4c-5.8,3.4-11.7,6.8-17.5,10.3c-0.8,0.5-1.6,0.7-2.5,0.7c-8.7,0-17.5,0-26.3,0c-0.4,0-0.8,0-1.3,0
		C171.6,255.3,295.7,182.3,297.8,181.4z"/>
	<path class="st1" d="M145,87.2c0.5-0.3,1-0.6,1.5-0.9c23.5-13.8,46.9-27.6,70.4-41.3c0.6-0.4,1.3-0.7,2.1-0.6
		c4.4,0.3,8.8,0.7,13.1,1.5c2.5,0.5,5,1.1,7.4,1.9c0.3,0.1,0.8,0.1,1,0.5c-0.4,0.4-0.9,0.6-1.3,0.9c-21.3,12.5-42.6,25-63.9,37.5
		c-0.9,0.5-1.7,0.8-2.8,0.8c-8.7,0-17.3,0-26,0c-0.5,0-0.9,0-1.4,0C145,87.4,145,87.3,145,87.2z"/>
	<path class="st1" d="M189.3,87.3c0.3-0.4,0.8-0.6,1.2-0.9c16.1-9.4,32.1-18.9,48.2-28.3c3.2-1.9,6.3-3.7,9.5-5.6
		c0.6-0.3,1-0.4,1.6-0.1c4.2,2.6,8,5.7,11.4,9.1c0.1,0.1,0.1,0.2,0.2,0.3c-0.2,0.4-0.7,0.6-1.1,0.8c-13.7,8.1-27.5,16.2-41.2,24.2
		c-0.6,0.3-1.1,0.6-1.8,0.6c-8.9-0.1-17.9-0.1-26.8-0.1C190.1,87.4,189.7,87.5,189.3,87.3z"/>
	<path class="st1" d="M180.5,144.7c0,0.5,0,0.8,0,1.2c0,4.9,0,9.8,0,14.6c0,0.9-0.3,1.3-1.1,1.8c-14.8,8.7-29.6,17.4-44.4,26
		c-0.3,0.2-0.6,0.5-1.3,0.4c0-1.3-0.1-2.7,0-4c0.2-2.5,0.1-4.9,0.1-7.4c0-1.5,0-3,0-4.5c0-0.8,0.3-1.3,1-1.7
		c5.9-3.4,11.7-6.8,17.5-10.3c8.8-5.2,17.6-10.3,26.4-15.5C179.3,145.2,179.7,144.8,180.5,144.7z"/>
	<path class="st0" d="M47.9,144.4c0.2,0.4,0.1,0.8,0.1,1.2c0,4.8,0,9.7,0,14.5c0,1-0.4,1.5-1.2,2c-9.8,5.7-19.7,11.5-29.5,17.3
		c-4.4,2.6-8.9,5.2-13.3,7.8c-0.3,0.2-0.6,0.5-1,0.4c-0.3-0.3-0.3-0.7-0.4-1.1c-0.8-4.6-1-9.2-1.2-13.8c0-0.9,0.3-1.4,1.1-1.9
		c9.8-5.7,19.5-11.4,29.3-17.2c5.1-3,10.1-6,15.2-8.9C47.3,144.6,47.5,144.3,47.9,144.4z"/>
	<path class="st0" d="M48,170.5c0.1,1.6,0.1,3.2,0.2,4.7c0.2,3.4,0.8,6.8,2.1,10c0.3,0.6-0.1,0.9-0.5,1.1c-3.3,1.9-6.6,3.9-9.9,5.9
		c-8.1,4.7-16.1,9.5-24.2,14.2c-0.8,0.5-1.7,1-2.5,1.5c-0.6,0.4-1,0.4-1.4-0.2c-2.5-3.6-4.8-7.4-6.4-11.4c-0.3-0.7,0-1,0.6-1.4
		c2.5-1.4,4.9-2.9,7.4-4.4c7.8-4.6,15.6-9.1,23.4-13.7c3.4-2,6.9-4,10.3-6C47.2,170.6,47.5,170.4,48,170.5z"/>
	<path class="st1" d="M215.3,255.8c21.4-12.5,42.6-25,63.8-37.4c0.3,0.2,0,0.3-0.1,0.4c-5.3,6.2-10.4,12.5-16,18.5
		c-8.9,9.5-20,15.3-33.4,17.4c-4.3,0.7-8.7,1.1-13.1,1.3C216.1,255.9,215.8,256,215.3,255.8z"/>
	<path class="st1" d="M134.1,162.9c-0.3-0.6-0.2-1-0.2-1.4c0-6.7,0-13.4,0-20.2c0-0.2,0-0.4,0-0.5c-0.1-0.6,0.2-0.9,0.9-0.9
		c0.3,0,0.6,0,0.9,0c11.9,0,23.8,0,35.7,0c0.5,0,0.9,0,1.4,0.3C160,147.7,147.1,155.3,134.1,162.9z"/>
</g>
<g>
	<path class="st2" d="M70.7,45.3c-5.3,0.8-10.5,2.2-15.4,4.4c-7.6,3.4-13.7,8.5-19.2,14.4C32.4,68,28.8,72,25.1,76
		c-3.6,4-7.4,7.9-10.8,12.1c-3.6,4.5-6.9,9.3-9.2,14.5c-2.6,5.9-3.5,12-3.7,18.3c-0.1,4.2-0.1,8.4-0.1,12.7c0,1.2,0,1.3,1.3,1.3
		c14.7,0,29.3,0,44,0c1.3,0,1.3,0,1.3-1.3c0-3.6,0-7.1,0.5-10.7c0.6-3.5,1.7-6.8,3.7-9.9c1.6-2.4,3.5-4.7,5.3-7
		c3-3.9,6-7.8,9.2-11.6c2.5-2.9,5.5-5,9.5-5.9c3.2-0.8,6.5-1,9.8-1c14,0,28,0,42,0c0.9,0,1.7-0.1,2.4-0.6
		c13.5-7.9,26.9-15.8,40.4-23.7c10.4-6.1,20.8-12.2,31.2-18.3c0.3-0.2,0.7-0.3,0.9-0.6H82.1C78.3,44.4,74.5,44.7,70.7,45.3z"/>
</g>
</svg>
