<?xml version="1.0" encoding="utf-8"?>
<!-- Generator: Adobe Illustrator 22.0.1, SVG Export Plug-In . SVG Version: 6.00 Build 0)  -->
<svg version="1.1" id="Layer_1" xmlns="http://www.w3.org/2000/svg" xmlns:xlink="http://www.w3.org/1999/xlink" x="0px" y="0px"
	 viewBox="0 0 200 200" style="enable-background:new 0 0 200 200;" xml:space="preserve">
<style type="text/css">
	.st0{fill:#E9E9E0;}
	.st1{fill:#D9D7CA;}
	.st2{fill:#14A085;}
	.st3{fill:#26B99A;}
	.st4{fill:#F3D55B;}
	.st5{fill:#FFFFFF;}
</style>
<g>
	<g>
		<g>
			<polygon class="st0" points="133.6,1.2 21.9,1.2 21.9,199.8 177.1,199.8 177.1,44.7 133.6,44.7 			"/>
		</g>
		<g>
			<polygon class="st1" points="133.6,44.7 177.1,44.7 133.6,1.2 			"/>
		</g>
	</g>
	<g>
		<rect x="21.9" y="144" class="st2" width="155.2" height="55.9"/>
	</g>
	<polygon class="st3" points="21.9,144 84,88.1 102.6,106.7 139.8,69.5 177.1,100.5 177.1,144 	"/>
	<circle class="st4" cx="65.3" cy="50.9" r="18.6"/>
</g>
<g>
	<path class="st5" d="M66,157.6v30.9h-6.2v-30.9H66z"/>
	<path class="st5" d="M81.5,166.8h-0.1v21.6h-6.2v-30.9h5.6l9.6,13h0.5l9.6-13h5.6v30.9H100v-21.6h-0.1c-0.1,0.4-0.3,0.8-0.4,1.2
		c-0.2,0.3-0.3,0.7-0.6,1.1c-0.2,0.4-0.5,0.8-0.7,1.2l-4.3,5.8h-6.2l-4.3-5.8c-0.3-0.4-0.5-0.8-0.7-1.2c-0.2-0.4-0.4-0.8-0.6-1.1
		C81.8,167.6,81.7,167.2,81.5,166.8z"/>
	<path class="st5" d="M129.9,189.1c-2.3,0-4.4-0.4-6.4-1.2c-2-0.8-3.7-1.9-5.1-3.3c-1.4-1.4-2.5-3.1-3.3-5.1c-0.8-2-1.2-4.1-1.2-6.4
		c0-2.3,0.4-4.4,1.2-6.4c0.8-2,1.9-3.7,3.3-5.1c1.4-1.4,3.1-2.5,5.1-3.3c2-0.8,4.1-1.2,6.4-1.2c2.3,0,4.5,0.4,6.4,1.2
		c1.9,0.8,3.6,1.9,5.1,3.3l-4.5,4.4c-0.8-0.9-1.8-1.7-3.1-2.3c-1.2-0.6-2.5-0.8-4-0.8c-1.4,0-2.7,0.3-3.9,0.8
		c-1.2,0.5-2.2,1.2-3,2.1c-0.8,0.9-1.5,2-2,3.2c-0.5,1.2-0.7,2.6-0.7,4.1c0,1.5,0.2,2.8,0.7,4.1c0.5,1.2,1.1,2.3,2,3.2
		c0.8,0.9,1.9,1.6,3,2.1c1.2,0.5,2.5,0.8,3.9,0.8c2.3,0,4.2-0.7,5.9-1.9c1.6-1.3,2.8-3,3.3-5.2h-9.2v-5.6h15.9
		c0.1,0.8,0.2,1.6,0.2,2.5c0,2.3-0.4,4.4-1.2,6.4c-0.8,2-1.9,3.7-3.3,5.1c-1.4,1.4-3.1,2.5-5.1,3.3
		C134.4,188.7,132.2,189.1,129.9,189.1z"/>
</g>
</svg>
