<?xml version="1.0" encoding="utf-8"?>
<!-- Generator: Adobe Illustrator 22.0.1, SVG Export Plug-In . SVG Version: 6.00 Build 0)  -->
<svg version="1.1" id="Layer_1" xmlns="http://www.w3.org/2000/svg" xmlns:xlink="http://www.w3.org/1999/xlink" x="0px" y="0px"
	 viewBox="0 0 200 200" style="enable-background:new 0 0 200 200;" xml:space="preserve">
<style type="text/css">
	.st0{fill:#FFFFFF;}
	.st1{fill:#E9E9E0;}
	.st2{fill:#D9D7CA;}
	.st3{fill:#767677;}
</style>
<g>
	<path class="st0" d="M66,158.6v30.9h-6.2v-30.9H66z"/>
	<path class="st0" d="M81.5,167.8h-0.1v21.6h-6.2v-30.9h5.6l9.6,13h0.5l9.6-13h5.6v30.9H100v-21.6h-0.1c-0.1,0.4-0.3,0.8-0.4,1.2
		c-0.2,0.3-0.3,0.7-0.6,1.1c-0.2,0.4-0.5,0.8-0.7,1.2l-4.3,5.8h-6.2l-4.3-5.8c-0.3-0.4-0.5-0.8-0.7-1.2c-0.2-0.4-0.4-0.8-0.6-1.1
		C81.8,168.6,81.7,168.2,81.5,167.8z"/>
	<path class="st0" d="M129.9,190.1c-2.3,0-4.4-0.4-6.4-1.2c-2-0.8-3.7-1.9-5.1-3.3c-1.4-1.4-2.5-3.1-3.3-5.1c-0.8-2-1.2-4.1-1.2-6.4
		c0-2.3,0.4-4.4,1.2-6.4c0.8-2,1.9-3.7,3.3-5.1c1.4-1.4,3.1-2.5,5.1-3.3c2-0.8,4.1-1.2,6.4-1.2c2.3,0,4.5,0.4,6.4,1.2
		c1.9,0.8,3.6,1.9,5.1,3.3l-4.5,4.4c-0.8-0.9-1.8-1.7-3.1-2.3c-1.2-0.6-2.5-0.8-4-0.8c-1.4,0-2.7,0.3-3.9,0.8
		c-1.2,0.5-2.2,1.2-3,2.1c-0.8,0.9-1.5,2-2,3.2c-0.5,1.2-0.7,2.6-0.7,4.1c0,1.5,0.2,2.8,0.7,4.1c0.5,1.2,1.1,2.3,2,3.2
		c0.8,0.9,1.9,1.6,3,2.1c1.2,0.5,2.5,0.8,3.9,0.8c2.3,0,4.2-0.7,5.9-1.9c1.6-1.3,2.8-3,3.3-5.2h-9.2v-5.6h15.9
		c0.1,0.8,0.2,1.6,0.2,2.5c0,2.3-0.4,4.4-1.2,6.4c-0.8,2-1.9,3.7-3.3,5.1c-1.4,1.4-3.1,2.5-5.1,3.3
		C134.4,189.7,132.2,190.1,129.9,190.1z"/>
</g>
<g>
	<g>
		<g>
			<polygon class="st1" points="134.8,0.3 23.1,0.1 22.7,198.7 177.8,199 178.2,43.8 134.7,43.7 			"/>
		</g>
		<g>
			<polygon class="st2" points="134.7,43.7 178.2,43.8 134.8,0.3 			"/>
		</g>
	</g>
	<g>
		
			<rect x="72.4" y="93.3" transform="matrix(2.012068e-03 -1 1 2.012068e-03 -70.7987 270.8817)" class="st3" width="55.9" height="155.2"/>
	</g>
	<g>
		<path class="st0" d="M60,169.6l21.7,0l0,5.6l-21.7,0L60,169.6z"/>
		<path class="st0" d="M91,169.6l21.7,0l0,5.6l-21.7,0L91,169.6z"/>
		<path class="st0" d="M122,169.7l21.7,0l0,5.6l-21.7,0L122,169.7z"/>
	</g>
</g>
</svg>
