<?xml version="1.0" encoding="utf-8"?>
<!-- Generator: Adobe Illustrator 22.0.1, SVG Export Plug-In . SVG Version: 6.00 Build 0)  -->
<svg version="1.1" id="Layer_1" xmlns="http://www.w3.org/2000/svg" xmlns:xlink="http://www.w3.org/1999/xlink" x="0px" y="0px"
	 viewBox="0 0 200 200" style="enable-background:new 0 0 200 200;" xml:space="preserve">
<style type="text/css">
	.st0{fill:#FFFFFF;}
	.st1{fill:#E9E9E0;}
	.st2{fill:#D9D7CA;}
	.st3{fill:#CC4B4C;}
	.st4{fill:#D05E5E;}
</style>
<g>
	<path class="st0" d="M66,158.6v30.9h-6.2v-30.9H66z"/>
	<path class="st0" d="M81.5,167.8h-0.1v21.6h-6.2v-30.9h5.6l9.6,13h0.5l9.6-13h5.6v30.9H100v-21.6h-0.1c-0.1,0.4-0.3,0.8-0.4,1.2
		c-0.2,0.3-0.3,0.7-0.6,1.1c-0.2,0.4-0.5,0.8-0.7,1.2l-4.3,5.8h-6.2l-4.3-5.8c-0.3-0.4-0.5-0.8-0.7-1.2c-0.2-0.4-0.4-0.8-0.6-1.1
		C81.8,168.6,81.7,168.2,81.5,167.8z"/>
	<path class="st0" d="M129.9,190.1c-2.3,0-4.4-0.4-6.4-1.2c-2-0.8-3.7-1.9-5.1-3.3c-1.4-1.4-2.5-3.1-3.3-5.1c-0.8-2-1.2-4.1-1.2-6.4
		c0-2.3,0.4-4.4,1.2-6.4c0.8-2,1.9-3.7,3.3-5.1c1.4-1.4,3.1-2.5,5.1-3.3c2-0.8,4.1-1.2,6.4-1.2c2.3,0,4.5,0.4,6.4,1.2
		c1.9,0.8,3.6,1.9,5.1,3.3l-4.5,4.4c-0.8-0.9-1.8-1.7-3.1-2.3c-1.2-0.6-2.5-0.8-4-0.8c-1.4,0-2.7,0.3-3.9,0.8
		c-1.2,0.5-2.2,1.2-3,2.1c-0.8,0.9-1.5,2-2,3.2c-0.5,1.2-0.7,2.6-0.7,4.1c0,1.5,0.2,2.8,0.7,4.1c0.5,1.2,1.1,2.3,2,3.2
		c0.8,0.9,1.9,1.6,3,2.1c1.2,0.5,2.5,0.8,3.9,0.8c2.3,0,4.2-0.7,5.9-1.9c1.6-1.3,2.8-3,3.3-5.2h-9.2v-5.6h15.9
		c0.1,0.8,0.2,1.6,0.2,2.5c0,2.3-0.4,4.4-1.2,6.4c-0.8,2-1.9,3.7-3.3,5.1c-1.4,1.4-3.1,2.5-5.1,3.3
		C134.4,189.7,132.2,190.1,129.9,190.1z"/>
</g>
<g>
	<g>
		<g>
			<polygon class="st1" points="134.4,1.2 22.6,1.2 22.6,199.8 177.8,199.8 177.8,44.7 134.4,44.7 			"/>
		</g>
		<g>
			<polygon class="st2" points="134.4,44.7 177.8,44.7 134.4,1.2 			"/>
		</g>
	</g>
	<g>
		<rect x="22.6" y="144" class="st3" width="155.2" height="55.9"/>
	</g>
	<g>
		<path class="st0" d="M84.8,176.5c-0.5-1.1-0.8-2-1.2-2.9c-0.3-0.8-0.6-1.5-0.8-2.1c-0.2-0.7-0.4-1.3-0.5-1.8h-0.1
			c-0.1,0.5-0.3,1.1-0.5,1.8c-0.2,0.6-0.5,1.3-0.8,2.1c-0.3,0.8-0.7,1.8-1.2,2.9L74.2,189h-6.5l-3.7-31H70l2.7,23h0.1
			c0.1-0.7,0.3-1.5,0.6-2.4c0.2-0.7,0.4-1.5,0.7-2.4c0.3-0.9,0.6-1.8,1-2.8l4.1-9.3h6.2l4,9.3c0.5,1,0.8,1.9,1.1,2.8
			c0.3,0.9,0.5,1.7,0.7,2.4c0.2,0.8,0.4,1.6,0.6,2.4h0.1l2.7-23h6.1l-3.7,31h-6.5L84.8,176.5z"/>
		<path class="st0" d="M106.1,179.7h6.2c0,1.3,0.8,2.4,2.4,3.2c1.6,0.8,3.7,1.2,6.3,1.2c2.9,0,5-0.4,6.5-1.2
			c1.5-0.8,2.2-1.9,2.2-3.4c0-1.2-0.7-2.1-2.1-2.7c-1.4-0.6-3.7-0.8-6.8-0.8c-4.9,0-8.5-0.7-10.7-2.1c-2.2-1.4-3.3-3.7-3.3-6.8
			c0-3.2,1.2-5.6,3.6-7.3c2.4-1.7,6-2.5,10.6-2.5c2.2,0,4.1,0.2,5.9,0.7c1.8,0.5,3.3,1.2,4.5,2c1.2,0.9,2.2,1.9,2.9,3.1
			c0.7,1.2,1,2.6,1,4.1h-6.2c0-1.3-0.7-2.4-2.2-3.2c-1.5-0.8-3.4-1.2-5.9-1.2c-5.4,0-8.1,1.4-8.1,4.2c0,1.2,0.7,2,2,2.5
			c1.3,0.5,3.4,0.7,6.4,0.7c5.1,0,8.8,0.7,11.1,2.2c2.3,1.4,3.4,3.8,3.4,7c0,3.3-1.3,5.8-3.8,7.5c-2.5,1.7-6.2,2.6-11.1,2.6
			c-2.2,0-4.3-0.2-6.1-0.7c-1.8-0.5-3.4-1.2-4.7-2c-1.3-0.9-2.3-1.9-3-3.1C106.5,182.5,106.1,181.2,106.1,179.7z"/>
	</g>
	<path class="st4" d="M137.5,119.2c8.2,0,14.9-6.7,14.9-14.9s-6.7-14.9-14.9-14.9c-0.1,0-0.1,0-0.2,0c-1.2-9.8-9.6-17.4-19.7-17.4
		c-3.7,0-7.1,1-10.1,2.8c-1.1-9.9-9.5-17.7-19.7-17.7c-11,0-19.9,8.9-19.9,19.9c0,0.8,0.1,1.7,0.2,2.5c-0.1,0-0.1,0-0.2,0
		c-11,0-19.9,8.9-19.9,19.9s8.9,19.9,19.9,19.9H137.5z"/>
</g>
</svg>
